<svg xmlns="http://www.w3.org/2000/svg" width="30" height="30" viewBox="0 0 30 30">
  <defs>
    <style>
      .cls-1 {
        fill: #fff;
        fill-rule: evenodd;
      }
    </style>
  </defs>
  <path
    id="icon"
    class="cls-1"
    d="m 26.740731,4.7159778 c 0,0 2.677688,-2.7890539 2.592853,-4.03367975 0,0 -3.089599,1.67942085 -3.768158,1.75440285 0,0 -0.214851,-0.2675324 -0.566532,-0.6192935 C 24.881633,1.7001536 24.749225,1.5735271 24.604364,1.4443844 24.336143,1.2020139 24.053741,0.99373767 23.760512,0.81729079 23.613923,0.72909889 23.464692,0.64876995 23.313376,0.57573795 c -0.985003,-0.5341837 -2.064139,-0.6650248 -3.123401,-0.521603 -0.151368,0.020507 -0.302226,0.046612 -0.452424,0.077876 -1.756881,0.3403756 -3.259366,1.65992065 -4.204875,3.45904835 -0.08488,0.1641175 -0.163566,0.3325752 -0.235284,0.5053108 -0.143234,0.3454708 -0.258666,0.7080516 -0.339839,1.0862953 -0.03187,0.1396477 -0.06674,0.3022557 -0.09962,0.4758718 -0.03294,0.173616 -0.06399,0.3582401 -0.08824,0.5419209 -0.09693,0.7347861 0,3.1189875 0,3.1189875 0,0 -7.8150091,0.2999279 -12.8312068,-7.737426 0,0 -2.47168021,5.7880824 1.7932235,9.8367334 0,0 -0.8673345,0.479835 -2.5055826,-0.719752 0,0 -0.8142699,4.408464 4.4684206,7.437435 H 3.1259876 c 0,0 0.8966116,4.888362 5.6705107,5.338191 0,0 -2.2536267,3.748723 -8.7965040921999,3.178872 0,0 5.9032026921999,5.079842 13.5084427921999,2.722251 0.135762,-0.04215 0.272135,-0.08662 0.409015,-0.133485 1.203718,-0.459516 2.415364,-0.999298 3.515848,-1.723202 0.09601,-0.06158 0.19208,-0.124676 0.288247,-0.189216 0.288553,-0.193243 0.578274,-0.399002 0.869114,-0.61747 0,0 7.996314,-5.36203 8.650525,-19.2165921 0,0 1.680537,-1.2204076 2.758808,-3.5595694 0,5.87e-5 -3.029062,0.8697159 -3.259263,0.7797623 z"
    />
</svg>
